<?xml version="1.0" encoding="UTF-8" standalone="no"?>
<!-- Created with Inkscape (http://www.inkscape.org/) -->

<svg
   xmlns:dc="http://purl.org/dc/elements/1.1/"
   xmlns:cc="http://creativecommons.org/ns#"
   xmlns:rdf="http://www.w3.org/1999/02/22-rdf-syntax-ns#"
   xmlns:svg="http://www.w3.org/2000/svg"
   xmlns="http://www.w3.org/2000/svg"
   xmlns:sodipodi="http://sodipodi.sourceforge.net/DTD/sodipodi-0.dtd"
   xmlns:inkscape="http://www.inkscape.org/namespaces/inkscape"
   width="48px"
   height="48px"
   id="svg3215"
   version="1.1"
   inkscape:version="0.48.5 r10040"
   sodipodi:docname="New document 10">
  <defs
     id="defs3217" />
  <sodipodi:namedview
     id="base"
     pagecolor="#ffffff"
     bordercolor="#666666"
     borderopacity="1.0"
     inkscape:pageopacity="0.0"
     inkscape:pageshadow="2"
     inkscape:zoom="7"
     inkscape:cx="16.618686"
     inkscape:cy="18.285714"
     inkscape:current-layer="layer1"
     showgrid="true"
     inkscape:grid-bbox="true"
     inkscape:document-units="px"
     inkscape:window-width="903"
     inkscape:window-height="767"
     inkscape:window-x="0"
     inkscape:window-y="48"
     inkscape:window-maximized="0" />
  <metadata
     id="metadata3220">
    <rdf:RDF>
      <cc:Work
         rdf:about="">
        <dc:format>image/svg+xml</dc:format>
        <dc:type
           rdf:resource="http://purl.org/dc/dcmitype/StillImage" />
        <dc:title></dc:title>
      </cc:Work>
    </rdf:RDF>
  </metadata>
  <g
     id="layer1"
     inkscape:label="Layer 1"
     inkscape:groupmode="layer">
    <path
       transform="matrix(0.26526912,0,0,0.2793678,-24.768756,-107.83372)"
       sodipodi:type="arc"
       style="fill:#000000"
       id="path3026-3-4"
       sodipodi:cx="153.29065"
       sodipodi:cy="479.35315"
       sodipodi:rx="10.859139"
       sodipodi:ry="10.859139"
       d="m 164.14979,479.35315 a 10.859139,10.859139 0 1 1 -21.71828,0 10.859139,10.859139 0 1 1 21.71828,0 z" />
    <path
       transform="matrix(0.26526912,0,0,0.2793678,-9.0259709,-108.04537)"
       sodipodi:type="arc"
       style="fill:#000000"
       id="path3026-2-9-0"
       sodipodi:cx="153.29065"
       sodipodi:cy="479.35315"
       sodipodi:rx="10.859139"
       sodipodi:ry="10.859139"
       d="m 164.14979,479.35315 a 10.859139,10.859139 0 1 1 -21.71828,0 10.859139,10.859139 0 1 1 21.71828,0 z" />
    <path
       style="fill:#000000"
       d="m 20.282357,32.644126 -0.762267,-1.518478 0.462711,-3.381843 0.462715,-3.381844 0.966105,-1.024289 0.966107,-1.02429 1.091949,0 c 1.726973,0 1.857271,0.05473 2.54432,1.068718 l 0.602901,0.889792 0.595691,3.526376 0.595692,3.526373 -0.836187,1.418529 -0.83619,1.41853 -2.545642,5.59e-4 -2.545638,5.59e-4 -0.762267,-1.51848 0,3e-6 z"
       id="path3048-7-9"
       inkscape:connector-curvature="0" />
    <path
       style="fill:#ac9393"
       d="M 17.762085,39.694136 C 14.630276,38.1207 12.00719,36.776712 11.933004,36.70749 11.858818,36.638271 11.204677,34.549148 10.479358,32.064994 L 9.1605964,27.548351 6.0588833,25.67034 C 4.3529411,24.637436 2.9355838,23.772659 2.9092001,23.748614 2.882816,23.724563 2.4532556,21.946546 1.9546196,19.797459 L 1.0480085,15.890023 3.6558945,11.569991 C 5.0902317,9.1939736 6.288183,7.2238471 6.3180086,7.1919321 6.3478341,7.1600171 8.045653,6.7403285 10.090939,6.2592934 c 3.484698,-0.8195729 3.736884,-0.8603159 4.007636,-0.6474823 0.158912,0.1249193 1.706416,1.6081639 3.438896,3.2960983 l 3.149965,3.0689666 3.173202,0 3.173202,0 3.621221,-3.1785347 c 2.385231,-2.0936406 3.695361,-3.1543834 3.838431,-3.1077709 0.119464,0.038919 1.754641,0.4222896 3.633728,0.8519349 1.879084,0.4296426 3.520036,0.8280797 3.646562,0.8854144 0.126522,0.057335 1.343381,2.078686 2.704127,4.4918953 l 2.474083,4.387653 -1.172686,3.8513 -1.172689,3.8513 -3.020901,1.769254 -3.020897,1.769256 -1.468175,4.790249 -1.468174,4.790254 -5.935925,2.654819 c -3.264757,1.460149 -6.003499,2.680966 -6.086093,2.712923 -0.08259,0.03196 -2.712557,-1.229252 -5.844367,-2.802687 z m 9.232618,-6.81357 c 0.448782,-0.764739 0.814744,-1.542563 0.813249,-1.728499 -0.0016,-0.185938 -0.260137,-1.835284 -0.574759,-3.665216 C 26.675006,24.24027 26.648542,24.141609 26.140364,23.41254 25.472936,22.454996 25.058212,22.277326 23.49049,22.277326 l -1.247221,0 -0.919278,0.975611 -0.919276,0.975611 -0.445817,3.151624 c -0.245198,1.733393 -0.447896,3.315419 -0.450437,3.515611 -0.0026,0.200196 0.331352,1.041515 0.741984,1.869602 l 0.746605,1.505618 2.590844,0 2.590841,0 0.815968,-1.390437 0,0 z M 17.44433,28.687077 c 1.377192,-0.896707 1.776513,-2.755815 0.912221,-4.247019 -0.49461,-0.853371 -1.521836,-1.457222 -2.478927,-1.457222 -0.942095,0 -1.957697,0.607728 -2.467857,1.476746 -0.344264,0.586427 -0.403344,0.825483 -0.399498,1.616434 0.003,0.61883 0.08548,1.087545 0.247427,1.406197 0.828351,1.629911 2.70456,2.169861 4.186634,1.204864 z m 15.882752,-0.293985 c 1.767208,-1.344591 1.571958,-4.285153 -0.349574,-5.264786 -1.30561,-0.665628 -2.905338,-0.256301 -3.737122,0.956225 -0.348134,0.507491 -0.425494,0.766664 -0.468589,1.569883 -0.05794,1.079781 0.155367,1.727895 0.787909,2.394053 0.647074,0.681467 1.164272,0.873681 2.226596,0.827496 0.829194,-0.03604 1.040592,-0.102297 1.54078,-0.482871 z M 10.996039,21.609679 c 1.224454,-2.345345 2.989362,-5.124955 4.354042,-6.85732 0.600951,-0.762867 1.06284,-1.46132 1.026419,-1.552123 -0.05109,-0.127352 -2.733134,-3.4491583 -3.312296,-4.1023872 -0.06644,-0.074929 -1.12614,0.1491209 -2.569025,0.543158 l -2.455945,0.6706982 -1.7760757,2.88448 -1.7760759,2.884479 0.6213841,2.578182 0.6213839,2.578182 2.0301789,1.076451 c 1.1165983,0.592051 2.0904705,1.080089 2.1641601,1.084534 0.07369,0.0044 0.5560216,-0.800305 1.0718496,-1.788334 l 0,0 z m 28.6387,0.721923 2.04566,-1.074538 0.625576,-2.558839 0.625574,-2.558838 -0.680922,-1.119408 C 41.87612,14.404303 41.073824,13.099052 40.46775,12.119418 L 39.365796,10.33827 36.919129,9.6674042 C 35.573461,9.2984293 34.424233,9.0480319 34.365285,9.1109651 c -0.05895,0.062933 -0.857308,1.0351139 -1.774131,2.1604019 l -1.666953,2.04598 0.390568,0.493858 c 2.306855,2.916927 3.684986,5.061824 5.462279,8.501397 0.310781,0.601448 0.620624,1.09354 0.688541,1.09354 0.06792,0 1.044035,-0.48354 2.16915,-1.07454 z"
       id="path3159"
       inkscape:connector-curvature="0" />
    <path
       style="fill:#808080"
       d="M 22.316127,41.831137 C 20.68816,41.074414 16.676026,39.06838 14.014273,37.680279 l -2.073048,-1.081094 -0.37744,-1.199366 C 11.356193,34.740166 10.759037,32.740044 10.236773,30.955102 9.7145083,29.170162 9.2341992,27.639274 9.1694195,27.553134 9.1046397,27.466991 7.6794747,26.563032 6.0023866,25.544335 L 2.9531353,23.692156 2.0376279,19.818881 C 1.524087,17.646224 1.1673099,15.864246 1.2250423,15.760296 1.2816494,15.658371 2.4652235,13.694326 3.8552068,11.395747 L 6.3824496,7.2165137 7.0814703,7.0611935 C 7.4659318,6.9757657 8.9863215,6.6185073 10.460114,6.2672861 11.933906,5.9160649 13.340996,5.6283832 13.586977,5.627992 c 0.397055,-5.587e-4 0.814762,0.3555542 3.722357,3.17409 l 3.275119,3.174794 3.286393,0 3.286392,0 1.566043,-1.382982 c 2.209252,-1.9510069 4.985296,-4.3128713 5.403171,-4.5970331 0.341956,-0.2325318 0.46351,-0.2144622 3.684467,0.5477537 1.831966,0.4335201 3.461472,0.8227465 3.621122,0.864945 0.38529,0.1018407 0.955793,0.9889868 3.387423,5.2675074 l 2.041901,3.592784 -0.15727,0.569729 c -0.0865,0.31335 -0.606127,2.041184 -1.154732,3.839631 l -0.997463,3.269905 -2.822697,1.656539 c -1.552482,0.911094 -2.931247,1.757238 -3.063922,1.880319 -0.144484,0.134035 -0.796202,2.051481 -1.625051,4.78112 -0.761106,2.50654 -1.421522,4.621572 -1.467591,4.700076 -0.06221,0.106018 -9.827465,4.559711 -11.715728,5.343259 -0.191203,0.07934 -0.637943,-0.05962 -1.540784,-0.479292 l 0,0 z m 4.667403,-8.814854 c 0.387926,-0.690097 0.737782,-1.467921 0.777458,-1.728499 0.07155,-0.469907 -0.595386,-4.908816 -0.968516,-6.446191 -0.21504,-0.886004 -0.724826,-1.746501 -1.302293,-2.198214 -0.320326,-0.250567 -0.605549,-0.302203 -1.875737,-0.339577 l -1.497969,-0.04408 -0.891958,0.96124 -0.891954,0.961238 -0.41436,3.0689 c -0.227898,1.687895 -0.414709,3.275294 -0.415139,3.527552 -5.3e-4,0.264826 0.292767,1.099664 0.693841,1.975499 l 0.694618,1.516848 2.693344,0 2.69334,0 0.705325,-1.25472 0,0 z M 16.824219,29.052339 c 0.257912,-0.07558 0.702814,-0.340591 0.988666,-0.588916 1.620518,-1.40777 1.267009,-4.232732 -0.648324,-5.180898 -1.59953,-0.791829 -3.584197,0.08816 -4.072865,1.805876 -0.721725,2.53693 1.294652,4.67832 3.732523,3.963938 l 0,0 z M 33.39205,28.408058 c 1.510537,-1.263309 1.555415,-3.712834 0.09131,-4.983816 -1.370439,-1.18967 -3.664818,-0.686065 -4.472732,0.981744 -0.54634,1.127833 -0.273169,2.94742 0.562257,3.745193 0.661116,0.631322 1.063402,0.763085 2.211392,0.724309 0.990199,-0.03344 1.141431,-0.07741 1.607775,-0.46743 l 0,0 z M 10.153038,23.159215 c 0.111865,-0.135812 0.643621,-1.040628 1.181681,-2.010705 1.256214,-2.264846 2.280531,-3.875446 3.846725,-6.048452 0.691676,-0.95966 1.226418,-1.830393 1.188318,-1.934963 -0.0381,-0.104568 -0.780446,-1.079109 -1.64965,-2.165643 L 13.139736,9.0239364 12.603812,9.1026595 C 11.43816,9.2738868 8.1696515,10.192842 7.9608913,10.408036 c -0.4005232,0.41287 -3.4630231,5.521289 -3.4592589,5.770236 0.00202,0.133825 0.259722,1.32275 0.5726632,2.642054 l 0.568984,2.398735 2.0064739,1.087386 c 1.1035603,0.598065 2.0724935,1.090158 2.1531847,1.093544 0.080691,0.0034 0.2382358,-0.104967 0.3500998,-0.240776 z m 29.542801,-0.800283 c 1.878179,-0.968663 2.039524,-1.082436 2.151048,-1.516847 0.06631,-0.258297 0.354336,-1.426409 0.64005,-2.595798 l 0.519481,-2.126165 -1.788304,-2.918073 C 39.575338,10.52144 39.390439,10.273093 38.945992,10.150252 37.590543,9.7756146 35.190877,9.1750129 34.777691,9.1069841 c -0.463035,-0.076237 -0.490005,-0.051312 -2.143699,1.9810889 -0.92112,1.132063 -1.69426,2.110739 -1.718089,2.174839 -0.02382,0.0641 0.430778,0.737531 1.010238,1.49651 1.898896,2.487194 2.289925,3.109695 5.05478,8.047038 0.184696,0.329825 0.414254,0.599682 0.510125,0.599682 0.09587,0 1.088028,-0.471243 2.204793,-1.04721 z"
       id="path3167"
       inkscape:connector-curvature="0" />
    <path
       style="fill:#666666"
       d="M 8.6806213,22.76617 C 7.6220289,22.223741 5.8624728,21.2962 5.7782607,21.236206 5.757079,21.221123 5.4656864,20.069672 5.130724,18.677443 L 4.521701,16.14612 4.6527249,15.89068 c 0.1272363,-0.24806 3.2516643,-5.347782 3.3471912,-5.46332 0.026217,-0.03171 0.1335773,-0.09029 0.2385788,-0.13018 0.2944949,-0.111878 2.9665441,-0.8344825 3.7916551,-1.0253829 0.27197,-0.062925 0.905571,-0.1795832 0.977758,-0.1800246 0.05972,-2.794e-4 2.683752,3.2148475 3.204162,3.9260425 l 0.145739,0.199167 -0.120687,0.227277 c -0.148534,0.279716 -0.398527,0.636774 -0.990661,1.414916 -1.50758,1.981168 -2.782794,3.99332 -4.24043,6.690949 -0.556936,1.030713 -0.870844,1.571301 -0.994961,1.713443 -0.038118,0.04365 -0.1005918,0.07896 -0.1388309,0.07847 -0.038239,-5.59e-4 -0.574467,-0.259633 -1.1916178,-0.575866 z"
       id="path3175"
       inkscape:connector-curvature="0" />
    <path
       style="fill:#666666"
       d="m 37.342976,23.229585 c -0.150344,-0.194991 -0.298359,-0.453489 -0.74303,-1.297669 -1.687002,-3.202676 -2.969478,-5.19233 -5.101329,-7.914294 l -0.548598,-0.700453 0.06404,-0.07561 c 0.03522,-0.04158 0.574672,-0.702629 1.198783,-1.468991 2.078052,-2.5516894 2.1254,-2.6072809 2.239413,-2.6293258 0.124069,-0.023998 0.877741,0.1303502 1.808252,0.3702992 1.381469,0.3562387 2.960554,0.8060906 3.052661,0.8696496 0.05238,0.03614 0.268023,0.343695 0.479219,0.683451 0.532483,0.856617 2.208005,3.580518 2.707011,4.400797 l 0.412947,0.678816 -0.570668,2.337242 c -0.72283,2.960421 -0.643593,2.679497 -0.788611,2.795985 -0.178128,0.143087 -3.74855,1.987663 -4.021379,2.077552 -0.05774,0.01903 -0.09535,-0.0064 -0.188707,-0.12745 l 0,0 z"
       id="path3177"
       inkscape:connector-curvature="0" />
  </g>
</svg>
